<svg xmlns="http://www.w3.org/2000/svg" viewBox="0 0 22.32 20.64"><path d="M7.60434.02445c4.663,0,9.326.01257,13.98879-.01567.59314-.00359.72913.13394.72684.72607q-.03714,9.58959,0,19.17934c.00229.59209-.13389.72783-.72678.72579Q11.16093,20.604.72853,20.64c-.59282.002-.74147-.13192-.72767-.72607.044-1.89325.01629-3.78817.01629-5.68244a.82327.82327,0,0,1,.70678-.20713,5.35815,5.35815,0,0,1,1.90049,1.36682c1.35045,1.32657,2.86835,2.4702,4.16174,3.85517a2.27775,2.27775,0,0,0,2.12535.7c2.46133-.29932,4.91345-.69528,7.39314-.83052A1.7332,1.7332,0,0,0,18.14882,17.797c.93823-3.45941,2.29282-6.78626,3.29381-10.22887.2745-.94408.10889-1.49276-.69872-1.92982-1.18491-1.90976-2.8908-1.26176-4.53312-.91717a19.129,19.129,0,0,0-3.30617,1.20607.86787.86787,0,0,1-1.28975-.38192A18.63456,18.63456,0,0,0,7.643.35353.30815.30815,0,0,1,7.60434.02445Z" fill="#fefefe"/><path d="M.76173,14.22l-.74458.01144C.01715,9.75828.03038,5.285.00159.812-.00232.20508.05558-.0231.76177.00183,2.64538.06832,4.53289.02445,6.41885.02445c.07735.58794-.37661.71278-.77344.8886C4.46525.68749,3.97512,1.32452,3.70478,2.36642,2.94653,5.2888,2.01057,8.15877,1.05126,11.0207A5.10225,5.10225,0,0,0,.76173,14.22Z" fill="#fefefe"/><path d="M5.67405.718c.18364-.3004.702-.24237.7448-.69356H7.60434a13.90212,13.90212,0,0,1,4.069,5.07686c.40135.70753.71882.81206,1.43983.4297A8.51917,8.51917,0,0,1,16.109,4.51146c.25333-.14144.46247-.14733.56222.18241-.2913.55176-.877.60047-1.3757.77047A11.35451,11.35451,0,0,0,12.1626,6.96907a.45119.45119,0,0,1-.60069-.19015A11.30289,11.30289,0,0,0,7.70277,1.23214c-.41929-.36247-.98176-.11308-1.4791-.14349A.74955.74955,0,0,1,5.67405.718Z" fill="#552b24"/><path d="M11.63313,6.69087a.44581.44581,0,0,0,.49376.18657c1.57509-.56416,3.26286-.41,4.8753-.7651,1.11406-.24536,2.26527-.31845,3.37189-.62276a.68765.68765,0,0,1,.57364-.05528c1.06479.43468,1.15064,1.153.8029,2.1784-1.18547,3.49573-2.30955,7.01256-3.42064,10.53281a1.42684,1.42684,0,0,1-1.28829,1.16668c-2.85417.327-5.70583.67608-8.56082.99552a2.39272,2.39272,0,0,1-1.971-.886C4.66853,17.60622,2.77512,15.8466.76173,14.22A1.73983,1.73983,0,0,1,.38726,12.1949c1.07326-3.33339,2.07582-6.68945,3.107-10.03638C4.01732.46076,4.03379.45236,5.67405.718l.50014.20152c.31125,1.20212,1.33964,1.813,2.18011,2.552A37.32764,37.32764,0,0,1,11.63313,6.69087Z" fill="#4b0f09"/><path d="M20.94772,5.4343l-.33079.30773a.76031.76031,0,0,1-.64489-.22546,2.30839,2.30839,0,0,0-2.26094-.6302c-.37467.04439-.77819.20819-1.0974-.15956L16.109,4.51146a8.03858,8.03858,0,0,1,3.17132-.49466C20.24921,4.01646,20.36019,5.00005,20.94772,5.4343Z" fill="#552e28"/><path d="M11.63313,6.69087c-1.12334-.41853-1.749-1.43124-2.58767-2.18532C8.082,3.63929,7.17684,2.70837,6.24859,1.80325c-.27687-.27-.66762-.53753-.0744-.88372A2.0314,2.0314,0,0,1,8.66771,1.59a23.0296,23.0296,0,0,1,3.0175,4.31417C11.82968,6.16291,12.06337,6.45694,11.63313,6.69087Z" fill="#f8dfd1"/><path d="M16.6137,4.72681A4.01925,4.01925,0,0,0,17.19,4.65822c1.37461-.36308,2.61-.30437,3.42692,1.08387a34.58491,34.58491,0,0,1-8.49,1.13537c.26846-.84206,1.10659-.88458,1.73653-1.1674C14.74885,5.31258,15.69408,5.04814,16.6137,4.72681Z" fill="#f6dcd0"/><path d="M13.2971,8.0777c.12353-.64855.699-.57273,1.12532-.63981,2.06064-.32424,4.13217-.58053,6.19062-.91711.78821-.12889.79486.17062.60344.7614q-1.72781,5.33262-3.43183,10.67291c-.32171,1.01182-1.12609.782-1.85238.78665-.29339.03555-.862.36623-.68137-.27615.16769-.59641.2361-1.01909-.22188-1.48227a2.69523,2.69523,0,0,0-2.03464-1.02648,4.15341,4.15341,0,0,0-1.27745.18009c-.29411.10345-.59855.23431-.88434-.03262-.32089-.70212.07613-1.32713.27879-1.93489A32.39953,32.39953,0,0,1,13.2971,8.0777Z" fill="#dc6e57"/><path d="M10.04064,6.39563l.43783.256a1.45248,1.45248,0,0,1,.07034,1.2522c-1.0312,3.39342-2.20631,6.741-3.23294,10.13581a1.13715,1.13715,0,0,1-.46627.664q-2.908-2.47828-5.81712-4.95529a.814.814,0,0,1-.25157-.95376c.36632-1.11245.73929-2.22272,1.10968-3.33384a4.369,4.369,0,0,1,1.96577-.12621A2.58537,2.58537,0,0,0,6.763,8.07905,6.48078,6.48078,0,0,1,7.82141,6.83164,1.72139,1.72139,0,0,1,10.04064,6.39563Z" fill="#e36d5a"/><path d="M10.04064,6.39563c-1.45985-.22714-2.2295.7183-2.93942,1.74284C6.07209,9.62368,5.28041,10.017,3.54259,9.5576c-.583-.1541-1.15217.5212-1.65195-.09685C2.49411,6.80957,3.50817,4.28229,4.2487,1.67224c.20131-.70955.56749-.47539.92966-.11473Q7.60854,3.97753,10.04064,6.39563Z" fill="#e47561"/><path d="M9.3083,18.95881c-.61134,1.02834-1.27185,1.04313-2.14972.04814a21.53217,21.53217,0,0,1,1.267-4.5955c.681-2.11645,1.38244-4.22629,2.05086-6.347.11735-.37233.09666-.89325.66978-.9758a1.97407,1.97407,0,0,0,1.14114.30306c.78049.1324.78089.67545.59784,1.23884-1.01985,3.1388-1.97393,6.2987-3.03217,9.42526C9.73474,18.40519,9.4329,18.6245,9.3083,18.95881Z" fill="#e1705a"/><path d="M10.876,16.11638c1.69051-.71826,3.256-.83286,4.54376.81036.40081.51144.75832.92987.13912,1.508-.13535.12636-.09927.16491.37326.307-1.94454.45612-3.98034.28771-5.91325.87693-.38285.11671-.51716-.24569-.25138-.59985C9.93442,17.97416,9.88628,16.84762,10.876,16.11638Z" fill="#d96750"/><path d="M11.14618,7.08865Q9.28644,12.72622,7.42453,18.36307c-.07272.21987-.17674.42942-.26607.64383l-.30885-.30324q1.69576-5.4568,3.39287-10.913a2.3299,2.3299,0,0,0,.23592-1.13905Z" fill="#5a0b07"/><path d="M10.876,16.11638q-.55437,1.451-1.10861,2.90221c-.117-.29458-.29571-.119-.4591-.05975C10.411,15.473,11.50235,11.98355,12.62877,8.50541c.16395-.50625.29121-.8982-.34119-1.11381.63147-.20457.73052.37284,1.00952.68608q-1.0512,3.39866-2.09971,6.79808C11.07228,15.2838,10.9822,15.70257,10.876,16.11638Z" fill="#580b06"/><path d="M15.25031,11.41267c-.58187-.08868-1.32952.20638-1.41343-.58564-.0689-.65039.58893-.85555,1.097-1.05818a18.182,18.182,0,0,1,3.00243-.47324.80166.80166,0,0,1,.97888.46622c.15035.461-.26013.74676-.57376.92695A7.6542,7.6542,0,0,1,15.25031,11.41267Z" fill="#f3a180"/></svg>